HIERARCHY
ROOT hip
{
  OFFSET -271.653 81.6942 16.8489
  CHANNELS 6 Xposition Yposition Zposition Zrotation Xrotation Yrotation
  JOINT abdomen
  {
    OFFSET 0 20.6881 -0.73152
    CHANNELS 3 Zrotation Xrotation Yrotation
    JOINT chest
    {
      OFFSET 0 11.7043 -0.48768
      CHANNELS 3 Zrotation Xrotation Yrotation
      JOINT neck
      {
        OFFSET 0 22.1894 -2.19456
        CHANNELS 3 Zrotation Xrotation Yrotation
        JOINT head
        {
          OFFSET -0.24384 7.07133 1.2192
          CHANNELS 3 Zrotation Xrotation Yrotation
          JOINT leftEye
          {
            OFFSET 4.14528 8.04674 8.04672
            CHANNELS 3 Zrotation Xrotation Yrotation
            End Site
            {
              OFFSET 1 0 0
            }
          }
          JOINT rightEye
          {
            OFFSET -3.6576 8.04674 8.04672
            CHANNELS 3 Zrotation Xrotation Yrotation
            End Site
            {
              OFFSET 1 0 0
            }
          }
        }
      }
      JOINT rCollar
      {
        OFFSET -2.68224 19.2634 -4.8768
        CHANNELS 3 Zrotation Xrotation Yrotation
        JOINT rShldr
        {
          OFFSET -8.77824 -1.95073 1.46304
          CHANNELS 3 Zrotation Xrotation Yrotation
          JOINT rForeArm
          {
            OFFSET -28.1742 -1.7115 0.48768
            CHANNELS 3 Zrotation Xrotation Yrotation
            JOINT rHand
            {
              OFFSET -22.5879 0.773209 7.07136
              CHANNELS 3 Zrotation Xrotation Yrotation
              JOINT rThumb1
              {
                OFFSET -1.2192 -0.487915 3.41376
                CHANNELS 3 Zrotation Xrotation Yrotation
                JOINT rThumb2
                {
                  OFFSET -3.37035 -0.52449 3.41376
                  CHANNELS 3 Zrotation Xrotation Yrotation
                  End Site
                  {
                    OFFSET -1.78271 -1.18214 1.43049
                  }
                }
              }
              JOINT rIndex1
              {
                OFFSET -7.75947 0.938293 5.60832
                CHANNELS 3 Zrotation Xrotation Yrotation
                JOINT rIndex2
                {
                  OFFSET -2.54057 -0.884171 1.56538
                  CHANNELS 3 Zrotation Xrotation Yrotation
                  End Site
                  {
                    OFFSET -1.62519 -0.234802 1.16502
                  }
                }
              }
              JOINT rMid1
              {
                OFFSET -8.24714 1.18213 3.41376
                CHANNELS 3 Zrotation Xrotation Yrotation
                JOINT rMid2
                {
                  OFFSET -3.10165 -0.590103 1.0647
                  CHANNELS 3 Zrotation Xrotation Yrotation
                  End Site
                  {
                    OFFSET -2.48547 -0.328903 0.83742
                  }
                }
              }
              JOINT rRing1
              {
                OFFSET -8.82822 0.546677 1.51678
                CHANNELS 3 Zrotation Xrotation Yrotation
                JOINT rRing2
                {
                  OFFSET -2.60934 -0.819778 -0.0198488
                  CHANNELS 3 Zrotation Xrotation Yrotation
                  End Site
                  {
                    OFFSET -2.33842 -0.294052 0.168128
                  }
                }
              }
              JOINT rPinky1
              {
                OFFSET -8.27202 -0.0477905 -0.4584
                CHANNELS 3 Zrotation Xrotation Yrotation
                JOINT rPinky2
                {
                  OFFSET -1.82734 -0.647385 -0.700984
                  CHANNELS 3 Zrotation Xrotation Yrotation
                  End Site
                  {
                    OFFSET -1.69225 -0.51767 -0.607171
                  }
                }
              }
            }
          }
        }
      }
      JOINT lCollar
      {
        OFFSET 2.68224 19.2634 -4.8768
        CHANNELS 3 Zrotation Xrotation Yrotation
        JOINT lShldr
        {
          OFFSET 8.77824 -1.95073 1.46304
          CHANNELS 3 Zrotation Xrotation Yrotation
          JOINT lForeArm
          {
            OFFSET 28.1742 -1.7115 0.48768
            CHANNELS 3 Zrotation Xrotation Yrotation
            JOINT lHand
            {
              OFFSET 22.5879 0.773209 7.07136
              CHANNELS 3 Zrotation Xrotation Yrotation
              JOINT lThumb1
              {
                OFFSET 1.2192 -0.487915 3.41376
                CHANNELS 3 Zrotation Xrotation Yrotation
                JOINT lThumb2
                {
                  OFFSET 3.37035 -0.52449 3.41376
                  CHANNELS 3 Zrotation Xrotation Yrotation
                  End Site
                  {
                    OFFSET 1.78271 -1.18214 1.43049
                  }
                }
              }
              JOINT lIndex1
              {
                OFFSET 7.75947 0.938293 5.60832
                CHANNELS 3 Zrotation Xrotation Yrotation
                JOINT lIndex2
                {
                  OFFSET 2.54057 -0.884171 1.56538
                  CHANNELS 3 Zrotation Xrotation Yrotation
                  End Site
                  {
                    OFFSET 1.62519 -0.234802 1.16502
                  }
                }
              }
              JOINT lMid1
              {
                OFFSET 8.24714 1.18213 3.41376
                CHANNELS 3 Zrotation Xrotation Yrotation
                JOINT lMid2
                {
                  OFFSET 3.10165 -0.590103 1.0647
                  CHANNELS 3 Zrotation Xrotation Yrotation
                  End Site
                  {
                    OFFSET 2.48547 -0.328903 0.83742
                  }
                }
              }
              JOINT lRing1
              {
                OFFSET 8.82822 0.546677 1.51678
                CHANNELS 3 Zrotation Xrotation Yrotation
                JOINT lRing2
                {
                  OFFSET 2.60934 -0.819778 -0.0198488
                  CHANNELS 3 Zrotation Xrotation Yrotation
                  End Site
                  {
                    OFFSET 2.33842 -0.294052 0.168128
                  }
                }
              }
              JOINT lPinky1
              {
                OFFSET 8.27202 -0.0477905 -0.4584
                CHANNELS 3 Zrotation Xrotation Yrotation
                JOINT lPinky2
                {
                  OFFSET 1.82734 -0.647385 -0.700984
                  CHANNELS 3 Zrotation Xrotation Yrotation
                  End Site
                  {
                    OFFSET 1.69225 -0.51767 -0.607171
                  }
                }
              }
            }
          }
        }
      }
    }
  }
  JOINT rButtock
  {
    OFFSET -8.77824 4.35084 1.2192
    CHANNELS 3 Zrotation Xrotation Yrotation
    JOINT rThigh
    {
      OFFSET 0 -1.70687 -2.19456
      CHANNELS 3 Zrotation Xrotation Yrotation
      JOINT rShin
      {
        OFFSET 0 -36.8199 0.73152
        CHANNELS 3 Zrotation Xrotation Yrotation
        JOINT rFoot
        {
          OFFSET 0.73152 -45.1104 -5.12064
          CHANNELS 3 Zrotation Xrotation Yrotation
          End Site
          {
            OFFSET -1.1221 -3.69964 12.103
          }
        }
      }
    }
  }
  JOINT lButtock
  {
    OFFSET 8.77824 4.35084 1.2192
    CHANNELS 3 Zrotation Xrotation Yrotation
    JOINT lThigh
    {
      OFFSET 0 -1.70687 -2.19456
      CHANNELS 3 Zrotation Xrotation Yrotation
      JOINT lShin
      {
        OFFSET 0 -36.8199 0.73152
        CHANNELS 3 Zrotation Xrotation Yrotation
        JOINT lFoot
        {
          OFFSET -0.73152 -45.1104 -5.12064
          CHANNELS 3 Zrotation Xrotation Yrotation
          End Site
          {
            OFFSET 1.1221 -3.69964 12.103
          }
        }
      }
    }
  }
}
MOTION
Frames:	4
Frame Time:	0.00833333
238.555 84.7658 43.9898 0.292816 -0.000579802 -0.0050038 -0.385195 -0.00168814 -0.0109958 -0.106234 -0.00256714 -0.0184048 8.42683e-017 -7.95139e-016 -3.10601e-017 2.08103e-016 3.18055e-015 -1.28899e-016 -0 0 0 -0 0 0 4.83866e-017 2.71776e-018 1.49089e-016 2.35911e-015 -1.05604e-016 3.97569e-016 6.06293e-015 -1.98785e-015 0 6.33564e-014 -1.68967e-015 -8.26944e-014 1.48535e-013 -6.21591e-015 -1.59028e-013 2.54842e-013 -1.59028e-014 -2.77503e-013 1.53859e-013 -5.56597e-015 -1.7175e-013 7.73091 5.47488 0.417314 1.48293e-013 -6.26172e-015 -1.59028e-013 2.90554 0.965183 0.102902 1.57959e-013 -5.76476e-015 -1.59823e-013 10.2786 0.731801 0.0259123 1.41336e-013 -5.96354e-015 -1.46306e-013 2.22167 -0.733487 -0.20892 -4.83843e-017 2.32951e-018 -2.48481e-016 -1.55718e-015 2.73329e-016 -1.19271e-015 5.86415e-015 3.97569e-015 -2.54444e-014 5.47031e-014 8.97016e-015 -3.49861e-014 1.33985e-013 2.46842e-014 -1.62208e-013 2.35759e-013 4.13472e-014 -2.79889e-013 1.30005e-013 2.66371e-014 -1.46306e-013 -7.73091 5.47488 -0.417314 1.34677e-013 2.49475e-014 -1.62208e-013 -2.90554 0.965183 -0.102902 1.28564e-013 2.51463e-014 -1.59823e-013 -10.2786 0.731801 -0.0259123 1.39149e-013 2.50469e-014 -1.74931e-013 -2.22167 -0.733487 0.20892 -2.03217e-016 0 -3.88251e-019 0.22163 -2.58356 -0.0280805 -0.00748943 -0.872628 -0.0651387 -0.51309 3.45577 0.129344 2.03217e-016 0 3.88251e-019 -0.807795 -4.07084 0.0653919 0.0032559 1.82138 0.0244332 0.517732 2.24911 -0.105183 
234.649 83.4924 36.9615 -11.4527 -15.2899 26.9355 0.994471 -2.2338 -0.52338 0.245393 -0.554028 -0.212256 -3.88199 1.94023 -2.4441 4.47328 -3.35014 -3.83906 -0 0 0 -0 0 0 -8.36765e-015 2.31052e-013 -2.4588e-014 20.7871 5.03476 -0.626029 -3.71175 -1.59673 5.89116 0.0146127 2.68212 0.375457 -1.12028e-010 5.06839e-011 4.11118e-010 -1.90234e-010 8.87742e-011 7.11076e-010 -1.12022e-010 5.06841e-011 4.11106e-010 7.73091 5.47488 0.417314 -1.1203e-010 5.06824e-011 4.1112e-010 2.90554 0.965183 0.102902 -1.12021e-010 5.06832e-011 4.11116e-010 10.2786 0.731801 0.0259123 -1.12035e-010 5.06862e-011 4.11126e-010 2.22167 -0.733487 -0.20892 -8.4799e-015 2.31051e-013 -2.49731e-014 -22.5795 2.98827 2.40456 4.20727 -1.90915 -6.57409 -0.0749712 6.08006 -0.837217 3.40849e-010 -2.9156e-010 -4.66773e-010 5.80375e-010 -5.03477e-010 -8.12842e-010 3.40844e-010 -2.9156e-010 -4.66765e-010 -7.73091 5.47488 -0.417314 3.40848e-010 -2.91562e-010 -4.66776e-010 -2.90554 0.965183 -0.102902 3.40844e-010 -2.91563e-010 -4.66775e-010 -10.2786 0.731801 -0.0259123 3.40855e-010 -2.91563e-010 -4.66791e-010 -2.22167 -0.733487 0.20892 -2.03217e-016 0 -3.88251e-019 1.97872 -5.66171 0.260248 -0.00935779 2.86744 -0.00310545 -0.694837 1.8115 -3.97252 2.03217e-016 0 3.88251e-019 0.831042 -6.82717 -0.487143 -0.00435572 5.3398 -0.0449508 0.705655 -1.00922 2.79377 
234.687 83.4913 36.9215 -10.1986 -20.1074 58.6353 2.41166 -4.61402 -1.08629 0.616056 -1.16699 -0.423117 -7.82492 4.05453 -5.02741 8.72458 -6.86257 -7.93176 -0 0 0 -0 0 0 -1.71307e-014 4.68068e-013 -5.17772e-014 42.8856 10.3857 -1.34773 -7.2812 -3.22882 12.1345 -0.00831311 5.51354 0.77461 -2.41082e-010 1.07358e-010 8.59517e-010 -4.09604e-010 1.87976e-010 1.4867e-009 -2.41075e-010 1.07358e-010 8.59507e-010 7.73091 5.47488 0.417314 -2.41086e-010 1.07355e-010 8.59522e-010 2.90554 0.965183 0.102902 -2.41077e-010 1.07356e-010 8.59515e-010 10.2786 0.731801 0.0259123 -2.4109e-010 1.07363e-010 8.59522e-010 2.22167 -0.733487 -0.20892 -1.72601e-014 4.68068e-013 -5.21499e-014 -46.7337 6.09978 5.02384 8.18136 -3.84318 -13.5462 0.0432493 12.5061 -1.75461 7.13127e-010 -6.09437e-010 -9.75969e-010 1.2143e-009 -1.0524e-009 -1.69955e-009 7.13121e-010 -6.09438e-010 -9.75968e-010 -7.73091 5.47488 -0.417314 7.13125e-010 -6.09441e-010 -9.75975e-010 -2.90554 0.965183 -0.102902 7.13123e-010 -6.09443e-010 -9.75976e-010 -10.2786 0.731801 -0.0259123 7.13134e-010 -6.09443e-010 -9.75992e-010 -2.22167 -0.733487 0.20892 -2.03217e-016 0 -3.88251e-019 3.8717 -8.91432 0.570417 -0.0201863 6.82062 0.0629557 -1.14268 0.081055 -8.31101 2.03217e-016 0 3.88251e-019 2.50545 -9.73955 -1.08065 -0.00302784 9.05915 -0.119384 1.26427 -4.43745 5.88104 
234.716 83.4842 36.9071 -7.34325 -9.51889 82.2358 3.63335 -6.69585 -1.55758 0.937448 -1.65687 -0.60018 -11.1487 5.77824 -7.36573 12.066 -9.8688 -11.6726 -0 0 0 -0 0 0 -2.51997e-014 6.93149e-013 -7.4062e-014 62.7012 15.0969 -1.93774 -10.1649 -4.58801 17.7253 -0.0625018 8.04497 1.13632 -3.3638e-010 1.52064e-010 1.23367e-009 -5.71211e-010 2.66354e-010 2.13378e-009 -3.36373e-010 1.52063e-010 1.23366e-009 7.73091 5.47488 0.417314 -3.36386e-010 1.5206e-010 1.23368e-009 2.90554 0.965183 0.102902 -3.36378e-010 1.52061e-010 1.23367e-009 10.2786 0.731801 0.0259123 -3.36388e-010 1.52071e-010 1.23367e-009 2.22167 -0.733487 -0.20892 -2.53429e-014 6.93149e-013 -7.44223e-014 -68.4967 8.90128 7.29214 11.3314 -5.42646 -19.8037 0.331899 18.2242 -2.6295 1.02228e-009 -8.7473e-010 -1.4e-009 1.74065e-009 -1.51051e-009 -2.43797e-009 1.02227e-009 -8.74733e-010 -1.4e-009 -7.73091 5.47488 -0.417314 1.02227e-009 -8.74736e-010 -1.4e-009 -2.90554 0.965183 -0.102902 1.02227e-009 -8.74738e-010 -1.40001e-009 -10.2786 0.731801 -0.0259123 1.02229e-009 -8.74738e-010 -1.40002e-009 -2.22167 -0.733487 0.20892 -2.03217e-016 0 -3.88251e-019 5.58763 -11.8169 0.851076 -0.0376301 10.3476 0.122957 -1.75995 -1.43108 -12.1737 2.03217e-016 0 3.88251e-019 3.94578 -12.3358 -1.6189 0.00649897 12.3766 -0.187466 2.07304 -7.44456 8.66379 
